<svg width="36" height="48" viewBox="0 0 36 48" fill="none" xmlns="http://www.w3.org/2000/svg">
<path d="M0 5.98315C0 4.39632 0.630365 2.87448 1.75242 1.75242C2.87448 0.630365 4.39632 0 5.98315 0L29.9157 0C31.5026 0 33.0244 0.630365 34.1464 1.75242C35.2685 2.87448 35.8989 4.39632 35.8989 5.98315V41.882C35.8989 43.4689 35.2685 44.9907 34.1464 46.1127C33.0244 47.2348 31.5026 47.8652 29.9157 47.8652H5.98315C4.39632 47.8652 2.87448 47.2348 1.75242 46.1127C0.630365 44.9907 0 43.4689 0 41.882V5.98315ZM13.4621 5.98315C13.0654 5.98315 12.6849 6.14074 12.4044 6.42125C12.1239 6.70177 11.9663 7.08223 11.9663 7.47893C11.9663 7.87564 12.1239 8.2561 12.4044 8.53661C12.6849 8.81713 13.0654 8.97472 13.4621 8.97472H22.4368C22.8335 8.97472 23.214 8.81713 23.4945 8.53661C23.775 8.2561 23.9326 7.87564 23.9326 7.47893C23.9326 7.08223 23.775 6.70177 23.4945 6.42125C23.214 6.14074 22.8335 5.98315 22.4368 5.98315H13.4621ZM17.9494 32.9073C20.3297 32.9073 22.6124 31.9618 24.2955 30.2787C25.9786 28.5956 26.9242 26.3128 26.9242 23.9326C26.9242 21.5523 25.9786 19.2696 24.2955 17.5865C22.6124 15.9034 20.3297 14.9579 17.9494 14.9579C15.5692 14.9579 13.2864 15.9034 11.6034 17.5865C9.92027 19.2696 8.97472 21.5523 8.97472 23.9326C8.97472 26.3128 9.92027 28.5956 11.6034 30.2787C13.2864 31.9618 15.5692 32.9073 17.9494 32.9073ZM32.9073 41.1491C30.3525 38.3669 25.7963 35.8989 17.9494 35.8989C10.1025 35.8989 5.54638 38.3699 2.99157 41.1491V41.882C2.99157 42.6754 3.30676 43.4364 3.86778 43.9974C4.42881 44.5584 5.18973 44.8736 5.98315 44.8736H29.9157C30.7091 44.8736 31.4701 44.5584 32.0311 43.9974C32.5921 43.4364 32.9073 42.6754 32.9073 41.882V41.1491Z" fill="white"/>
</svg>
