<svg width="15" height="12" viewBox="0 0 15 12" fill="none" xmlns="http://www.w3.org/2000/svg">
<path d="M2.25 7.36444V8.83733C2.256 9.87277 2.754 9.71186 3.123 9.40108L5.25 7.51541V8.46911C5.25 9.36389 5.46 9.57378 6.375 9.57378H9.75C9.75 9.57378 11.7034 11.8291 11.7188 11.814C12 12.1513 12.7616 12.0364 12.75 11.4149V9.57378H13.875C14.7937 9.57378 15 9.34953 15 8.46911V2.94578C15 2.06204 14.7788 1.84111 13.875 1.84111H10.125V1.10467C10.125 0.195158 9.9525 0 9 0H1.125C0.24 0 0 0.187793 0 1.10467V5.89155C0 6.78965 0.20625 7.36444 1.125 7.36444H2.25ZM11.625 8.46911V10.2075L10.125 8.46911H6.75C6.46875 8.46911 6.375 8.36969 6.375 8.10089V3.314C6.375 3.06729 6.49125 2.94578 6.75 2.94578H13.5C13.7584 2.94578 13.875 3.08202 13.875 3.29191V8.10089C13.875 8.36637 13.7404 8.46911 13.5 8.46911H11.625Z" fill="#7AACF7"/>
</svg>
