<svg width="55" height="52" viewBox="0 0 55 52" fill="none" xmlns="http://www.w3.org/2000/svg">
<path d="M0 52L11.7808 19.0646L33.1255 40.1559L0 52ZM6.39708 45.6029L26.285 38.5091L13.4275 25.5883L6.39708 45.6029ZM30.2119 28.8819L28.0585 26.7284L43.2594 11.5274C44.6106 10.1762 46.3208 9.49005 48.3898 9.46894C50.4588 9.44783 52.1689 10.1129 53.5201 11.4641L54.5968 12.5408L52.4434 14.6943L51.24 13.4909C50.4377 12.6886 49.5087 12.2769 48.4531 12.2558C47.3975 12.2347 46.4474 12.6464 45.6029 13.4909L30.2119 28.8819ZM20.1413 19.0646L17.9878 16.9111L19.8879 15.011C20.8591 14.0398 21.313 12.9314 21.2497 11.6858C21.1864 10.4401 20.7324 9.39505 19.8879 8.55055L18.1145 6.7771L20.268 4.62363L21.9147 6.2704C23.3926 7.74827 24.121 9.59562 24.0999 11.8124C24.0788 14.0292 23.3293 15.8766 21.8514 17.3544L20.1413 19.0646ZM25.2716 23.9415L23.1182 21.7881L32.7454 12.1608C33.5477 11.3585 33.9383 10.3346 33.9172 9.08892C33.8961 7.84328 33.4844 6.81933 32.6821 6.01705L28.8185 2.15347L30.972 0L34.9622 3.99026C36.2712 5.34145 36.9468 7.04101 36.989 9.08892C37.0313 11.1368 36.3768 12.8364 35.0256 14.1876L25.2716 23.9415ZM35.2789 34.0122L33.1255 31.8587L36.1023 28.8819C37.5802 27.404 39.3536 26.6439 41.4227 26.6017C43.4917 26.5595 45.2651 27.2773 46.743 28.7552L49.9732 31.9854L47.8197 34.1389L44.5262 30.8453C43.555 29.8741 42.5416 29.3886 41.486 29.3886C40.4304 29.3886 39.417 29.8741 38.4458 30.8453L35.2789 34.0122Z" fill="white"/>
</svg>
