<svg width="26" height="19" viewBox="0 0 26 19" fill="none" xmlns="http://www.w3.org/2000/svg">
<path d="M13.1774 12.3182C13.8733 12.3182 14.5407 12.0417 15.0328 11.5496C15.5249 11.0575 15.8013 10.3901 15.8013 9.69423C15.8013 8.99833 15.5249 8.33092 15.0328 7.83884C14.5407 7.34676 13.8733 7.07031 13.1774 7.07031C12.4815 7.07031 11.8141 7.34676 11.322 7.83884C10.8299 8.33092 10.5535 8.99833 10.5535 9.69423C10.5535 10.3901 10.8299 11.0575 11.322 11.5496C11.8141 12.0417 12.4815 12.3182 13.1774 12.3182Z" fill="#A0A3BD"/>
<path fill-rule="evenodd" clip-rule="evenodd" d="M0.658569 9.69544C2.33001 4.37282 7.30234 0.511719 13.1773 0.511719C19.0523 0.511719 24.0246 4.37282 25.696 9.69544C24.0246 15.0181 19.0523 18.8792 13.1773 18.8792C7.30234 18.8792 2.33001 15.0181 0.658569 9.69544ZM18.4251 9.69544C18.4251 11.0873 17.8722 12.4221 16.8881 13.4062C15.9039 14.3904 14.5691 14.9433 13.1773 14.9433C11.7855 14.9433 10.4507 14.3904 9.46651 13.4062C8.48235 12.4221 7.92945 11.0873 7.92945 9.69544C7.92945 8.30363 8.48235 6.96882 9.46651 5.98466C10.4507 5.0005 11.7855 4.4476 13.1773 4.4476C14.5691 4.4476 15.9039 5.0005 16.8881 5.98466C17.8722 6.96882 18.4251 8.30363 18.4251 9.69544Z" fill="#A0A3BD"/>
</svg>
