<svg width="265" height="76" viewBox="0 0 265 76" fill="none" xmlns="http://www.w3.org/2000/svg">
    <path d="M23.0288 67.1487V29.0551V23.5625L6.19676 34.3114V67.2077C6.19676 70.1017 3.83436 72.464 0.94043 72.464V75.5942H28.2851V72.464C25.3912 72.405 23.0288 70.0426 23.0288 67.1487Z" fill="#00237B"/>
    <path d="M108.902 67.151V5.49256V0L92.0696 10.6898V67.151C92.0696 70.045 89.7072 72.4074 86.8132 72.4074V75.5375H114.158V72.4074C111.264 72.4074 108.902 70.045 108.902 67.151Z" fill="#00237B"/>
    <path d="M66.854 24.3327C60.2393 24.3327 55.5145 26.695 52.6206 31.3608V5.49256V0L35.7886 10.6898V67.151C35.7886 70.045 33.4262 72.4074 30.5322 72.4074V75.5375H50.4354H52.5615H61.3024C67.858 75.5375 73.1144 73.4114 77.1304 69.1C81.1465 64.8477 83.0955 57.7015 83.0955 47.8385C83.0955 40.1607 81.619 34.3138 78.6069 30.3568C75.6539 26.3407 71.756 24.3327 66.854 24.3327ZM57.0501 73.6476C56.1642 73.6476 55.2192 73.5295 54.3333 73.2342C53.3293 72.9389 52.6797 71.9349 52.6797 70.8718V36.499V35.9674C52.6797 34.0185 53.3293 32.4239 54.6877 31.1245C56.0461 29.8252 57.5816 29.2346 59.4125 29.2346C61.3615 29.2346 62.897 30.7702 64.0192 33.8413C64.3735 34.7272 64.6097 35.8493 64.846 37.1486C65.3775 40.2788 65.6728 44.5311 65.6728 49.9646C65.6728 65.7927 62.7789 73.6476 57.0501 73.6476Z" fill="#00237B"/>
    <path d="M264.822 23.5693H260.806L248.698 58.8281L238.658 29.0028L236.827 23.5693L234.17 15.7734L221.826 23.5693L216.511 26.9357V29.0028C219.641 29.0028 222.417 31.0109 223.421 33.9639L237.418 75.4829H244.387H244.564H245.214H246.986H247.045L250.647 64.7931L250.588 64.675L264.822 23.5693Z" fill="#00237B"/>
    <path d="M14.5236 16.7139C19.1303 16.7139 22.851 12.9932 22.851 8.3865C22.851 3.77983 19.1303 0 14.5236 0C9.91694 0 6.19617 3.72077 6.19617 8.32744C6.19617 12.9341 9.91694 16.7139 14.5236 16.7139Z" fill="#00237B"/>
    <path d="M192.827 24.5703C183.259 24.5703 175.05 30.4172 171.565 38.6856H162.116C158.631 30.3582 150.422 24.5703 140.854 24.5703C128.157 24.5703 117.821 34.9058 117.821 47.6037C117.821 60.3015 128.157 70.637 140.854 70.637C150.245 70.637 158.277 65.0263 161.88 56.9942L144.516 50.1432H186.449H189.402L171.802 57.0532C175.404 65.0263 183.437 70.637 192.827 70.637C205.525 70.637 215.86 60.3015 215.86 47.6037C215.86 34.8467 205.525 24.5703 192.827 24.5703Z" fill="#00237B"/>
    </svg>