<svg width="58" height="57" viewBox="0 0 58 57" fill="none" xmlns="http://www.w3.org/2000/svg">
<path d="M0.688946 37.3574L5.92981 42.5983C6.35264 43.0154 6.91642 43.259 7.50998 43.281C8.10353 43.3029 8.68378 43.1017 9.13631 42.717C9.83496 42.1223 10.7315 41.8118 11.6483 41.847C12.5651 41.8822 13.4352 42.2606 14.0862 42.907C14.7324 43.558 15.1105 44.4278 15.1457 45.3444C15.1809 46.2609 14.8706 47.1572 14.2762 47.8557C13.8915 48.3083 13.6903 48.8885 13.7123 49.4821C13.7343 50.0756 13.9779 50.6394 14.395 51.0623L19.6406 56.3091C20.0839 56.7515 20.6846 57 21.311 57C21.9373 57 22.538 56.7515 22.9813 56.3091L31.336 47.9555C31.8519 47.4378 32.2409 46.8078 32.4726 46.1147C32.5177 45.9815 32.5929 45.8604 32.6924 45.7609C32.7919 45.6615 32.9129 45.5862 33.0462 45.5411C33.7395 45.3094 34.3697 44.92 34.887 44.4034L56.3112 22.9792C56.7536 22.5359 57.0021 21.9351 57.0021 21.3088C57.0021 20.6825 56.7536 20.0818 56.3112 19.6385L51.0644 14.3976C50.6416 13.9805 50.0778 13.7369 49.4842 13.7149C48.8907 13.6929 48.3104 13.8941 47.8579 14.2789C47.1609 14.8783 46.2631 15.1923 45.3444 15.1578C44.4258 15.1233 43.554 14.7429 42.904 14.0928C42.2539 13.4428 41.8735 12.5711 41.839 11.6524C41.8045 10.7337 42.1185 9.83592 42.718 9.13894C43.1027 8.68641 43.3039 8.10616 43.2819 7.5126C43.2599 6.91905 43.0163 6.35527 42.5992 5.93243L37.3583 0.69157C36.915 0.249119 36.3143 0.000629425 35.688 0.000629425C35.0617 0.000629425 34.4609 0.249119 34.0176 0.69157L12.5934 22.1158C12.0771 22.6329 11.6877 23.2625 11.4557 23.9554C11.4108 24.0891 11.3355 24.2105 11.2358 24.3103C11.136 24.41 11.0146 24.4853 10.8809 24.5302C10.1882 24.7619 9.55855 25.1509 9.04131 25.6667L0.687756 34.0214C0.24691 34.4647 -0.000450134 35.0645 -0.000228882 35.6897C-7.62939e-06 36.3148 0.247784 36.9145 0.688946 37.3574ZM27.8101 40.8786C27.9865 40.7021 28.196 40.5621 28.4266 40.4666C28.6571 40.3711 28.9043 40.3219 29.1538 40.3219C29.4034 40.3219 29.6505 40.3711 29.8811 40.4666C30.1117 40.5621 30.3212 40.7021 30.4976 40.8786L31.8645 42.2455C32.2122 42.6037 32.405 43.0843 32.4012 43.5834C32.3975 44.0825 32.1975 44.5601 31.8444 44.913C31.4914 45.2659 31.0137 45.4656 30.5146 45.4692C30.0155 45.4727 29.535 45.2797 29.177 44.9319L27.8101 43.5662C27.6336 43.3897 27.4936 43.1802 27.3981 42.9496C27.3025 42.7191 27.2534 42.472 27.2534 42.2224C27.2534 41.9728 27.3025 41.7257 27.3981 41.4951C27.4936 41.2646 27.6336 41.0551 27.8101 40.8786ZM22.5835 35.6514C22.5841 35.6523 22.5854 35.6525 22.5862 35.6517C22.9423 35.2966 23.4248 35.0971 23.9278 35.0971C24.4316 35.0971 24.9147 35.2971 25.271 35.6532L26.5773 36.9596C26.7538 37.136 26.8938 37.3455 26.9893 37.5761C27.0848 37.8066 27.134 38.0538 27.134 38.3033C27.134 38.5529 27.0848 38.8 26.9893 39.0306C26.8938 39.2611 26.7538 39.4706 26.5773 39.6471C26.221 40.0035 25.7376 40.2037 25.2336 40.2037C24.984 40.2037 24.7369 40.1545 24.5063 40.059C24.2758 39.9635 24.0663 39.8236 23.8898 39.6471L22.5835 38.3407C22.4064 38.1643 22.2658 37.9546 22.1699 37.7238C22.0739 37.4929 22.0245 37.2454 22.0244 36.9954C22.0243 36.7454 22.0735 36.4979 22.1692 36.2669C22.2647 36.0367 22.4045 35.8274 22.5808 35.6512C22.5815 35.6504 22.5829 35.6505 22.5835 35.6514ZM17.3563 30.4248C17.3579 30.4265 17.3606 30.4265 17.3622 30.4248C17.538 30.2497 17.7465 30.1108 17.9757 30.0158C18.2063 29.9202 18.4534 29.8711 18.703 29.8711C18.9526 29.8711 19.1997 29.9202 19.4303 30.0158C19.6608 30.1113 19.8703 30.2513 20.0468 30.4278L21.3531 31.7341C21.7008 32.0923 21.8936 32.5728 21.8898 33.072C21.8861 33.5711 21.6861 34.0487 21.333 34.4016C20.98 34.7544 20.5023 34.9542 20.0032 34.9578C19.5041 34.9613 19.0236 34.7683 18.6656 34.4205L17.3592 33.1141C17.1816 32.938 17.0406 32.7285 16.9441 32.4977C16.8477 32.2669 16.7977 32.0194 16.7972 31.7692C16.7966 31.5191 16.8455 31.2713 16.9409 31.0401C17.0358 30.8102 17.1749 30.6011 17.3503 30.4248C17.352 30.4232 17.3546 30.4232 17.3563 30.4248ZM12.0798 25.1353C12.0814 25.1369 12.0841 25.1369 12.0857 25.1353C12.2615 24.9602 12.47 24.8212 12.6992 24.7262C12.9298 24.6307 13.1769 24.5815 13.4265 24.5815C13.6761 24.5815 13.9232 24.6307 14.1538 24.7262C14.3843 24.8217 14.5938 24.9617 14.7703 25.1382L16.1289 26.504C16.3091 26.6799 16.4525 26.8899 16.5508 27.1217C16.6491 27.3536 16.7004 27.6027 16.7016 27.8545C16.7028 28.1063 16.6539 28.3559 16.5578 28.5887C16.4617 28.8215 16.3203 29.0328 16.1418 29.2105C15.9633 29.3881 15.7513 29.5285 15.518 29.6234C15.2848 29.7184 15.035 29.7661 14.7832 29.7636C14.5313 29.7612 14.2825 29.7088 14.0511 29.6093C13.8198 29.5099 13.6105 29.3654 13.4354 29.1844L12.0756 27.8198C11.8992 27.6433 11.7593 27.4337 11.6639 27.2031C11.5685 26.9725 11.5194 26.7254 11.5195 26.4758C11.5196 26.2262 11.5689 25.9791 11.6645 25.7486C11.7596 25.5194 11.8987 25.311 12.0738 25.1353C12.0755 25.1336 12.0781 25.1336 12.0798 25.1353Z" fill="white"/>
</svg>
